<svg width="23" height="24" viewBox="0 0 23 24" fill="none" xmlns="http://www.w3.org/2000/svg">
<path d="M4.5 22.5C4.5 22.5 6.6 21.3333 11.5 21.3333C16.4 21.3333 18.5 22.5 18.5 22.5M8 17.8333V21.56M15 17.8333V21.56M4.73333 17.8333H18.2667C19.5734 17.8333 20.2269 17.8333 20.726 17.579C21.165 17.3553 21.522 16.9983 21.7457 16.5593C22 16.0602 22 15.4068 22 14.1V5.23333C22 3.92655 22 3.27315 21.7457 2.77402C21.522 2.33497 21.165 1.97802 20.726 1.75432C20.2269 1.5 19.5734 1.5 18.2667 1.5H4.73333C3.42655 1.5 2.77315 1.5 2.27402 1.75432C1.83497 1.97802 1.47802 2.33497 1.25432 2.77402C1 3.27315 1 3.92654 1 5.23333V14.1C1 15.4068 1 16.0602 1.25432 16.5593C1.47802 16.9983 1.83497 17.3553 2.27402 17.579C2.77315 17.8333 3.42654 17.8333 4.73333 17.8333Z" stroke="white" stroke-width="2" stroke-linecap="round"/>
</svg>
