<svg width="22" height="26" viewBox="0 0 22 26" fill="none" xmlns="http://www.w3.org/2000/svg">
<path d="M18.5 5.33333L17.4989 20.6831C17.4113 22.0275 17.3674 22.6997 17.0834 23.2094C16.8332 23.6582 16.456 24.0189 16.0014 24.2442C15.485 24.5 14.8259 24.5 13.5077 24.5H8.49221C7.17409 24.5 6.51502 24.5 5.99861 24.2442C5.54396 24.0189 5.16674 23.6582 4.91665 23.2094C4.63259 22.6997 4.58875 22.0275 4.50107 20.6831L3.5 5.33333M1 5.33333H21M16 5.33333L15.6617 4.29587C15.3339 3.29049 15.1699 2.7878 14.8659 2.41614C14.5974 2.08794 14.2526 1.83391 13.8631 1.67733C13.422 1.5 12.9037 1.5 11.867 1.5H10.133C9.09625 1.5 8.578 1.5 8.13689 1.67733C7.7474 1.83391 7.4026 2.08794 7.13411 2.41614C6.83006 2.7878 6.66615 3.29049 6.3383 4.29587L6 5.33333M13.5 10.4444V19.3889M8.5 10.4444V19.3889" stroke="black" stroke-width="2" stroke-linecap="round" stroke-linejoin="round"/>
</svg>
