<svg width="23" height="24" viewBox="0 0 23 24" fill="none" xmlns="http://www.w3.org/2000/svg">
<path fill-rule="evenodd" clip-rule="evenodd" d="M21.8024 1.50189C20.4666 0.166042 18.3008 0.166031 16.9649 1.50189L15.0496 3.41723L6.03504 12.4318C5.88891 12.5779 5.78526 12.7611 5.73513 12.9615L4.59491 17.5224C4.49777 17.911 4.61162 18.322 4.89483 18.6051C5.17803 18.8884 5.58907 19.0023 5.97763 18.9051L10.5385 17.7649C10.739 17.7147 10.922 17.6111 11.0682 17.4649L20.0172 8.51598L21.9981 6.53506C23.334 5.19922 23.334 3.03337 21.9981 1.69752L21.8024 1.50189ZM18.5774 3.1144C19.0227 2.66912 19.7447 2.66912 20.1899 3.1144L20.3856 3.31003C20.8309 3.75532 20.8309 4.47727 20.3856 4.92255L19.2266 6.08161L17.4531 4.2388L18.5774 3.1144ZM15.8402 5.8516L17.6137 7.69442L9.67907 15.6292L7.26816 16.2319L7.87087 13.821L15.8402 5.8516ZM2.28043 7.53695C2.28043 6.90723 2.79093 6.39673 3.42065 6.39673H9.12174C9.75148 6.39673 10.262 5.88624 10.262 5.25651C10.262 4.62679 9.75148 4.11629 9.12174 4.11629H3.42065C1.53148 4.11629 0 5.64778 0 7.53695V20.0793C0 21.9686 1.53148 23.5 3.42065 23.5H15.963C17.8523 23.5 19.3837 21.9686 19.3837 20.0793V14.3782C19.3837 13.7486 18.8732 13.238 18.2435 13.238C17.6137 13.238 17.1033 13.7486 17.1033 14.3782V20.0793C17.1033 20.7091 16.5928 21.2196 15.963 21.2196H3.42065C2.79093 21.2196 2.28043 20.7091 2.28043 20.0793V7.53695Z" fill="black"/>
</svg>
