<svg width="25" height="24" viewBox="0 0 25 24" fill="none" xmlns="http://www.w3.org/2000/svg">
<path d="M15.47 17.4141L13.1763 15.1397C12.0696 14.042 11.5162 13.4932 10.8812 13.2926C10.3227 13.1162 9.72234 13.1227 9.16778 13.3112C8.5372 13.5256 7.99581 14.0861 6.91305 15.2073L1.41774 20.6351M15.47 17.4141L15.9394 16.9486C17.0475 15.8497 17.6015 15.3003 18.2373 15.0997C18.7964 14.9232 19.3971 14.9303 19.9521 15.1195C20.5829 15.3345 21.1243 15.8966 22.2068 17.0207L23.3571 18.1784M15.47 17.4141L20.9852 22.9402M1.41774 20.6351C1.46041 20.9816 1.53306 21.2555 1.65685 21.4985C1.9205 22.0159 2.34119 22.4367 2.85864 22.7002C3.4469 23 4.21696 23 5.75712 23H18.9571C19.8568 23 20.4938 23 20.9852 22.9402M1.41774 20.6351C1.35712 20.1429 1.35712 19.5041 1.35712 18.6V5.4C1.35712 3.85986 1.35712 3.08978 1.65685 2.50153C1.9205 1.98407 2.34119 1.56338 2.85864 1.29974C3.4469 1 4.21696 1 5.75712 1H18.9571C20.4973 1 21.2674 1 21.8556 1.29974C22.373 1.56338 22.7938 1.98407 23.0574 2.50153C23.3571 3.08978 23.3571 3.85986 23.3571 5.4V18.1784M23.3571 18.1784V18.6C23.3571 20.1401 23.3571 20.9103 23.0574 21.4985C22.7938 22.0159 22.373 22.4367 21.8556 22.7002C21.611 22.825 21.3349 22.8977 20.9852 22.9402M19.2321 7.87485C19.2321 9.39369 18.0009 10.6249 16.4821 10.6249C14.9633 10.6249 13.7321 9.39369 13.7321 7.87485C13.7321 6.35606 14.9633 5.12485 16.4821 5.12485C18.0009 5.12485 19.2321 6.35606 19.2321 7.87485Z" stroke="black" stroke-width="2" stroke-linecap="round" stroke-linejoin="round"/>
</svg>
