<svg width="20" height="20" viewBox="0 0 20 20" fill="none" xmlns="http://www.w3.org/2000/svg">
<path fill-rule="evenodd" clip-rule="evenodd" d="M6.02396 10C6.02396 9.60077 6.34762 9.27711 6.74685 9.27711H17.3229L15.4331 7.65727C15.13 7.39745 15.0949 6.94108 15.3547 6.63796C15.6145 6.33482 16.0709 6.29972 16.374 6.55955L19.7476 9.45118C19.9078 9.58844 20 9.78902 20 10C20 10.211 19.9078 10.4116 19.7476 10.5488L16.374 13.4404C16.0709 13.7003 15.6145 13.6652 15.3547 13.3621C15.0949 13.0589 15.13 12.6025 15.4331 12.3428L17.3229 10.7229H6.74685C6.34762 10.7229 6.02396 10.3992 6.02396 10Z" fill="white"/>
<path d="M12.53 6.14455C12.53 6.82137 12.53 7.15978 12.3676 7.40287C12.2973 7.50814 12.2069 7.59852 12.1016 7.66885C11.8585 7.83127 11.5201 7.83127 10.8433 7.83127H6.74684C5.54914 7.83127 4.57814 8.80221 4.57814 10C4.57814 11.1977 5.54914 12.1687 6.74684 12.1687H10.8433C11.5201 12.1687 11.8586 12.1687 12.1017 12.3311C12.2069 12.4015 12.2973 12.4918 12.3676 12.597C12.53 12.8401 12.53 13.1785 12.53 13.8555C12.53 16.5817 12.53 17.9448 11.6831 18.7917C10.8361 19.6387 9.47323 19.6387 6.74703 19.6387H5.78317C3.05697 19.6387 1.69387 19.6387 0.846924 18.7917C-2.47955e-05 17.9448 -2.47955e-05 16.5817 -2.47955e-05 13.8555V6.14455C-2.47955e-05 3.41833 -2.47955e-05 2.05522 0.846924 1.20829C1.69387 0.361359 3.05697 0.361359 5.78317 0.361359H6.74703C9.47323 0.361359 10.8361 0.361359 11.6831 1.20829C12.53 2.05522 12.53 3.41832 12.53 6.14455Z" fill="white"/>
</svg>
