<svg width="23" height="22" viewBox="0 0 23 22" fill="none" xmlns="http://www.w3.org/2000/svg">
<path d="M1.26694 9.32506C1.6849 9.32506 2.03441 8.98652 2.03441 8.56804V3.5829C2.03441 2.44764 2.94607 1.53441 4.08081 1.53441H9.067C9.48495 1.53441 9.82401 1.18542 9.82401 0.766944C9.82401 0.348469 9.48547 0 9.067 0H4.08081C2.11121 0 0.5 1.6133 0.5 3.5829V8.56856C0.5 8.98652 0.848991 9.32506 1.26694 9.32506Z" fill="white"/>
<path d="M18.9281 0H13.9424C13.524 0 13.1854 0.348991 13.1854 0.766944C13.1854 1.1849 13.524 1.53441 13.9424 1.53441H18.9281C20.0634 1.53441 20.9891 2.44816 20.9891 3.5829V8.56856C20.9891 8.98652 21.3266 9.32558 21.7446 9.32558C22.1625 9.32558 22.5 8.98704 22.5 8.56856V3.5829C22.5 1.6133 20.8977 0 18.9281 0Z" fill="white"/>
<path d="M9.067 20.4896H4.08134C2.94607 20.4896 2.03441 19.5644 2.03441 18.4302V13.444C2.03441 13.0266 1.68542 12.6875 1.26694 12.6875C0.848469 12.687 0.5 13.0255 0.5 13.4435V18.4297C0.5 20.3998 2.11173 22 4.08134 22H9.067C9.48495 22 9.82401 21.6625 9.82401 21.2446C9.82401 20.8266 9.48495 20.4896 9.067 20.4896Z" fill="white"/>
<path d="M21.7446 12.687C21.3266 12.687 20.9897 13.025 20.9897 13.4435V18.4297C20.9897 19.5644 20.0634 20.4891 18.9276 20.4891H13.9419C13.5245 20.4891 13.1854 20.8266 13.1854 21.2446C13.1854 21.6625 13.5234 22 13.9419 22H18.9276C20.8977 22 22.5 20.3993 22.5 18.4297V13.444C22.5 13.0255 22.1631 12.687 21.7446 12.687Z" fill="white"/>
<path d="M18.6052 5.64864C18.6052 4.68004 17.82 3.89481 16.8519 3.89481H6.14861C5.18001 3.89481 4.39478 4.68004 4.39478 5.64864V16.3509C4.39478 17.3195 5.18001 18.1047 6.14861 18.1047H16.8508C17.8194 18.1047 18.6047 17.3195 18.6047 16.3509L18.6052 5.64864Z" fill="white"/>
</svg>
