<svg width="22" height="22" viewBox="0 0 22 22" fill="none" xmlns="http://www.w3.org/2000/svg">
<path fill-rule="evenodd" clip-rule="evenodd" d="M9.27632 0.893066C9.87224 0.646792 10.4165 0.5 11.0076 0.5C11.5987 0.5 12.143 0.646792 12.7389 0.893066C13.3143 1.13086 13.9826 1.48133 14.8148 1.91774L16.8356 2.97741C17.8571 3.51307 18.6746 3.94173 19.3057 4.36294C19.9596 4.79928 20.4632 5.25871 20.8299 5.88106C21.3417 6.74957 21.463 7.72987 21.4997 9.02579C21.5112 9.43021 21.1924 9.76733 20.7876 9.77878C20.3829 9.79022 20.0456 9.47165 20.0341 9.06723C19.9983 7.80201 19.8758 7.14941 19.5665 6.62448C19.3493 6.25591 19.0352 5.94417 18.4915 5.58134C17.9324 5.20822 17.1841 4.81474 16.1189 4.2562L14.164 3.23105C13.2944 2.77501 12.6849 2.45622 12.1786 2.24697C11.6858 2.0433 11.3395 1.96512 11.0076 1.96512C10.6757 1.96512 10.3295 2.0433 9.83665 2.24697C9.3303 2.45622 8.72088 2.77501 7.85123 3.23105L5.89632 4.2562C4.8312 4.81474 4.08288 5.20822 3.52377 5.58134C2.98006 5.94417 2.66591 6.25591 2.44873 6.62448C2.23031 6.99513 2.10277 7.43548 2.03564 8.11644C1.967 8.81267 1.96618 9.69546 1.96618 10.9429V11.0571C1.96618 12.3045 1.967 13.1873 2.03564 13.8836C2.10277 14.5646 2.23031 15.0049 2.44872 15.3756C2.6659 15.7441 2.98005 16.0558 3.52376 16.4187C4.08288 16.7918 4.83119 17.1852 5.89631 17.7438C5.8963 17.7438 5.89632 17.7438 5.89631 17.7438L7.85121 18.7689C8.72087 19.225 9.3303 19.5438 9.83665 19.753C10.3295 19.9567 10.6757 20.0349 11.0076 20.0349C11.3395 20.0349 11.6857 19.9567 12.1786 19.753C12.6849 19.5438 13.2944 19.225 14.164 18.7689L16.1189 17.7438C16.1189 17.7438 16.1189 17.7438 16.1189 17.7438C17.184 17.1853 17.9324 16.7918 18.4915 16.4187C19.0352 16.0559 19.3493 15.7441 19.5665 15.3756C19.8758 14.8506 19.9983 14.198 20.0341 12.9328C20.0456 12.5283 20.3829 12.2098 20.7876 12.2212C21.1924 12.2327 21.5112 12.5698 21.4997 12.9742C21.463 14.2702 21.3417 15.2503 20.83 16.1189C20.4632 16.7413 19.9596 17.2007 19.3057 17.6371C18.6747 18.0581 17.8576 18.4867 16.8364 19.0222L16.8002 19.0411L14.8453 20.0662L14.8144 20.0824C13.9824 20.5187 13.3142 20.8691 12.7389 21.1069C12.143 21.3532 11.5987 21.5 11.0076 21.5C10.4165 21.5 9.87223 21.3532 9.27631 21.1069C8.70101 20.8692 8.03284 20.5188 7.20087 20.0825L7.16994 20.0663L5.21503 19.0412L5.17863 19.0221C4.15761 18.4866 3.34047 18.0581 2.70951 17.6371C2.05567 17.2008 1.55206 16.7413 1.18532 16.119C0.819803 15.4987 0.655374 14.8271 0.576523 14.0272C0.499985 13.2508 0.499992 12.296 0.5 11.0952V10.9048C0.499992 9.70401 0.499985 8.74917 0.576523 7.9728C0.655375 7.17296 0.819805 6.50132 1.18531 5.88106C1.55205 5.25871 2.05565 4.79927 2.70951 4.36294C3.34063 3.94177 4.15801 3.51314 5.1794 2.97755L5.21502 2.95887L7.16992 1.93373L7.2004 1.91774C8.03259 1.48133 8.7009 1.13086 9.27632 0.893066Z" fill="#A09B99"/>
<path fill-rule="evenodd" clip-rule="evenodd" d="M5.4392 3.00951C5.64695 2.63504 6.13537 2.49125 6.5301 2.68834L16.394 7.6133L20.3309 5.74589C20.7299 5.55665 21.2151 5.71006 21.4146 6.08855C21.614 6.46704 21.4523 6.92728 21.0534 7.11653L17.1922 8.94798V12.0501C17.1922 12.4732 16.8306 12.8163 16.3845 12.8163C15.9385 12.8163 15.5768 12.4732 15.5768 12.0501V9.71419L11.8077 11.502V20.7338C11.8077 21.157 11.4461 21.5 11 21.5C10.5539 21.5 10.1923 21.157 10.1923 20.7338V11.502L0.946651 7.11653C0.547675 6.92728 0.385958 6.46704 0.585446 6.08855C0.784934 5.71006 1.27008 5.55665 1.66906 5.74589L11 10.1718L14.6154 8.45696L5.77775 4.0444C5.38302 3.84732 5.23144 3.38398 5.4392 3.00951Z" fill="#A09B99"/>
</svg>
